<svg id="Layer_1" data-name="Layer 1" xmlns="http://www.w3.org/2000/svg" viewBox="0 0 268.33 500.22"><defs><style>.cls-1{fill:#f90f0d;stroke:#f90f0d;}.cls-1,.cls-2{stroke-miterlimit:10;stroke-width:0.09px;}.cls-2{fill:#2a56a5;stroke:#2a56a5;}</style></defs><path class="cls-1" d="M534.51,250c7.85,8.94,10.44,21.71,8.18,33.24-2.42,12.94-9.6,24.38-18,34.24A167.09,167.09,0,0,1,502,338.94c-9.43,7.6-18.7,15.79-24.63,26.48a34.57,34.57,0,0,0-2.76,28.81c5.6,16.2,18.62,28.23,25.72,43.51-7.85-6.93-15.53-14.11-22.71-21.71-7.52-8-14.62-16.54-19.29-26.56-3.18-7-4.6-15.2-2.18-22.63,2.43-7.6,7.85-13.7,13.28-19.38,15.12-15.12,33.74-26.22,48.52-41.59,8.19-8.43,14.95-18.54,17.29-30.15,1.92-8.52,1-17.29-.75-25.72Z" transform="translate(-365.82 -249.84)"/><path class="cls-1" d="M522.15,345.12c16.2-11.94,35.16-19.54,54.37-25.05-15.2,9.69-31.07,18.54-44.18,31-4.76,4.6-9.27,9.86-11.36,16.29a20.75,20.75,0,0,0,1,14.53c3.51,8,9.44,14.53,13.95,21.88a23.18,23.18,0,0,1,1.59,21.05c-4.43,9.93-13.12,17.2-22.13,23-1.17.67-2.18,1.92-3.6,2.09,6-5.43,10.69-13.11,10.53-21.38-.17-6.18-3.59-11.61-7.6-16-8.27-9.86-15.2-22.39-13.78-35.67s10.94-24,21.21-31.65Z" transform="translate(-365.82 -249.84)"/><path class="cls-2" d="M579.61,441.67c3.51-4.26,9.1-5.35,14.2-6,8.85-1.17,18.28,1.09,25,7.18a22.7,22.7,0,0,1,7.43,20.05c-1.25,8.6-7,15.78-13.53,21.21-11.78,9.44-26.31,15-40.84,18.62a13.23,13.23,0,0,1,2.84-2.42c11-5.93,22-12.86,30.07-22.55,4.92-6,8.77-13.86,7.18-21.79-1.67-9.19-10.61-15.87-19.71-16.37-4.34-.42-8.44,1.25-12.61,2.09Z" transform="translate(-365.82 -249.84)"/><path class="cls-2" d="M411.74,449.26c15.37-6.59,32.07-10.85,48.86-10.6-9.77,2.84-19.79,5.26-29,9.6-2.17,1.17-4.68,2.26-5.93,4.51-.67,1.76,1.17,2.93,2.51,3.51,5.68,2.34,11.94,2.67,18,3.26,21.38,1.42,42.84.58,64.14-.75,21-1.34,41.92-4.18,62.71-7.52a114.37,114.37,0,0,0-13.52,7.1c-2.18,1.5-4.85,1.92-7.27,2.5-25.56,5.68-51.78,7.44-77.84,7.85-10.1.09-20.12-.08-30.15-.75-11.19-.75-22.46-1.58-33.4-4.51-3.17-.92-6.51-1.92-9-4.17a2.94,2.94,0,0,1-.17-4.18c2.76-2.84,6.6-4.17,10-5.85Z" transform="translate(-365.82 -249.84)"/><path class="cls-2" d="M431.45,484.93c4.35-3.43,9.52-5.35,14.7-7.19-1.67,2-4,3.93-4.17,6.68-.09,1.76,1.33,3.09,2.75,3.93a27.28,27.28,0,0,0,8.94,2.34c16,1.67,32.24,2.59,48.44,1.5,14.78-.75,29.48-3.17,44.09-5.76A48.92,48.92,0,0,0,560,495a263.08,263.08,0,0,1-54,9.6c-17.2,1.17-34.66,1.09-51.78-1.67-6.76-1.25-13.69-2.67-19.87-5.84-2.51-1.34-5.35-3.09-6.1-6-.5-2.51,1.34-4.76,3.17-6.18Z" transform="translate(-365.82 -249.84)"/><path class="cls-2" d="M441.14,521.34c3.84-3.09,8.6-4.68,13.28-6-1.5,1.41-4.18,3.17-3,5.59,2.26,2.92,6.43,3.26,9.77,4,14.12,1.75,28.4,2.92,42.51,1.84,10.69-.67,21.22-2.59,31.66-4.43a155.76,155.76,0,0,0,18.7,9.19A139.24,139.24,0,0,1,523,540.8a164.62,164.62,0,0,1-54.29.75c-7.93-1.42-16-3.26-23.22-7.18-2.75-1.59-5.67-3.43-6.84-6.52-.92-2.42.58-5,2.5-6.51Z" transform="translate(-365.82 -249.84)"/><path class="cls-2" d="M394.79,545c7.68-2.59,15.62-4.67,23.72-4.93,3.26-.08,6.6.09,9.44,1.76a71.31,71.31,0,0,0-28.06,7.43c-1.93,1.09-4.1,2.34-4.85,4.59,0,2.59,2.92,3.43,4.85,4.26,12.11,4.51,25.05,5.93,37.74,7.27,37.84,3.17,75.92,2.34,113.75-1.09,14.28-1.58,28.65-3.17,42.51-7.09,4.42-1.51,9.44-3,12.36-6.94,1.75-2.33.58-5.26-1.17-7.26,2.84,1.59,6.85,3.59,6.26,7.43-1.08,4-5.17,6.1-8.52,8-10.68,5.43-22.46,8.18-34.15,10.6-34,6.68-68.82,8.19-103.39,7.19a580.85,580.85,0,0,1-77.84-7.85c-4.59-1.09-9.77-2-13.11-5.6-2.17-2.51-.25-6,1.84-7.85,5.26-4.84,12-7.52,18.62-9.94Z" transform="translate(-365.82 -249.84)"/><path class="cls-2" d="M602.91,573.53c8.43-2.92,17.45-6,23.72-12.69-1.09,7.27-7.35,12.28-13.53,15.53-11.86,6.18-25.14,9-38.34,11.36-27.89,4.43-56.2,5.51-84.51,5-19.29-.58-38.75-1.33-57.71-5.34-4.51-1.26-9.35-2.09-13.28-4.76,16.87,2.84,34,4,51.11,4.67a547.94,547.94,0,0,0,84.35-3.75c16.2-2.26,32.49-5,48.19-10Z" transform="translate(-365.82 -249.84)"/><path class="cls-1" d="M382.85,697.39c.08-27.4-.08-54.79.08-82.27,5.68.17,11.36,0,17,.17-.08,30.65,0,61.38-.08,92.12-.17,8.6-.34,17.62-4.51,25.3-4.6,8.19-12.78,13.95-21.47,17.29-2.75-3-5.26-6.18-8-9.19h0c7-4.09,14-9.94,15.7-18.37,1.58-8.27,1.08-16.7,1.25-25.05Z" transform="translate(-365.82 -249.84)"/><path class="cls-1" d="M415.75,648.11c11.28-4.84,23.8-7.35,36.08-6,6.35.75,12.95,3.09,17,8.18,3.42,4.35,4.67,9.94,4.59,15.37v56H460.85c-.42-2.76-.83-5.6-1.17-8.44-4.76,3.76-9.85,7.35-15.78,8.86a34.1,34.1,0,0,1-20.8-1,18.25,18.25,0,0,1-10.52-12c-2.09-7.77-1-16.87,4.51-23.14,4.93-5.76,12.36-8.6,19.71-9.93,6.76-1.34,13.69-1.34,20.63-1.34-.17-5.26.83-11-2.17-15.7-2.43-3.59-6.85-5-10.95-5.26-8.93-.75-17.78,1.5-26.22,4.42-.83-3.34-1.59-6.68-2.34-10m20.71,38.75c-3.67,1.17-7.09,3.84-8.1,7.69-1.17,4.26-.83,9.27,1.92,12.86s7.52,4.34,11.7,3.84c5.84-.67,10.94-4,15.45-7.6,0-6.26-.09-12.44,0-18.71-7,0-14.2-.42-21,1.92Z" transform="translate(-365.82 -249.84)"/><path class="cls-1" d="M562.57,648.11c11.36-4.84,23.89-7.43,36.25-6,6.18.75,12.52,3,16.61,7.85,3.85,4.59,5,10.69,4.93,16.54-.08,18.45.09,36.83-.16,55.28-4.18-.16-8.36.08-12.53-.16-.42-2.84-.75-5.6-1.25-8.36-5.85,5-12.87,9.11-20.8,9.77-7.26.67-15.45-.25-21.13-5.42-5.93-5.52-6.93-14.45-5.43-22.05,1.42-7,6.68-12.78,13-15.87,9.94-4.84,21.3-5.09,32.16-5-.17-5.09.75-10.52-1.84-15.12-2-3.67-6.27-5.34-10.27-5.76-9.28-1-18.55,1.34-27.23,4.34-.75-3.34-1.59-6.68-2.34-10M583,687c-3.51,1.17-6.76,3.84-7.85,7.51-1.17,4.26-.83,9.27,1.84,12.95s7.68,4.34,11.94,3.84c5.76-.84,11-4,15.37-7.85-.17-6.1-.08-12.28-.08-18.46-7.1,0-14.37-.42-21.22,2Z" transform="translate(-365.82 -249.84)"/><path class="cls-1" d="M483,643.1h17.54c3.42,11,6.76,22,10.19,33,2,6.76,4.51,13.45,5.93,20.38.75,3.09,1.42,6.26,2.34,9.27a311.26,311.26,0,0,0,15.53-62.64h17c-4.93,27.06-12.7,53.7-24.39,78.59h-20c-8-26.23-16.12-52.36-24.14-78.59Z" transform="translate(-365.82 -249.84)"/><path class="cls-1" d="M623.7,641.58h-2.06v-.74h5v.74h-2.06v6h-.88Z" transform="translate(-365.82 -249.84)"/><path class="cls-1" d="M633.08,644.63c-.05-.94-.11-2.08-.11-2.92h0c-.24.79-.51,1.64-.85,2.57l-1.19,3.27h-.66l-1.1-3.21c-.32-1-.58-1.82-.77-2.63h0c0,.85-.07,2-.13,3l-.18,2.89h-.84l.47-6.75h1.12l1.15,3.27c.28.83.5,1.57.68,2.27h0c.18-.68.42-1.42.72-2.27l1.2-3.27h1.11l.42,6.75h-.86Z" transform="translate(-365.82 -249.84)"/></svg>