<svg id="Layer_1" data-name="Layer 1" xmlns="http://www.w3.org/2000/svg" viewBox="0 0 500 128.48"><defs><style>.cls-1{fill:#5fb832;}</style></defs><path class="cls-1" d="M414.7,525.11a5.48,5.48,0,0,1-2.72-5,5.71,5.71,0,0,1,5.79-5.77,6.27,6.27,0,0,1,3.07.82c6,4,12.28,6,17.94,6,6.14,0,9.68-2.6,9.68-6.74v-.23c0-4.84-6.61-6.49-13.93-8.74-9.21-2.59-19.48-6.37-19.48-18.29V487c0-11.81,9.8-19,22.2-19a42.91,42.91,0,0,1,19.59,5.07,6.07,6.07,0,0,1,3.42,5.43,5.74,5.74,0,0,1-5.9,5.79,5.61,5.61,0,0,1-2.83-.71c-5.08-2.6-10.27-4.26-14.64-4.26-5.55,0-8.74,2.61-8.74,6.15v.23c0,4.6,6.73,6.49,14.05,8.85,9.09,2.84,19.36,7,19.36,18.18V513c0,13.1-10.16,19.58-23.14,19.58a42.57,42.57,0,0,1-23.72-7.43m102.19-24.78v-.24c0-12-8.14-19.95-17.82-19.95s-18.18,8-18.18,19.95v.24c0,11.92,8.5,19.95,18.18,19.95s17.82-7.67,17.82-19.95M467,475.18a7.07,7.07,0,0,1,7.09-7.2,7.16,7.16,0,0,1,7.2,7.2v4.26c4.6-6.49,11.09-11.69,21.24-11.69,14.64,0,28.92,11.57,28.92,32.34v.24c0,20.66-14.16,32.34-28.92,32.34-10.38,0-16.87-5.2-21.24-11v22.06a7.15,7.15,0,0,1-14.29,0V475.18m69.86,0a7.05,7.05,0,0,1,7.08-7.2,7.15,7.15,0,0,1,7.2,7.2v3.43c.72-5.34,9.44-10.63,15.7-10.63,4.48,0,7.08,2.95,7.08,7.08a6.71,6.71,0,0,1-5.66,6.85c-10.16,1.77-17.12,10.65-17.12,22.94v20.59a7.13,7.13,0,0,1-7.2,7.09,7,7,0,0,1-7.08-7.09V475.19m42.47,0a7.06,7.06,0,0,1,7.08-7.2,7.16,7.16,0,0,1,7.2,7.2v50.24a7.14,7.14,0,0,1-14.28,0V475.22m21.48,0a7.05,7.05,0,0,1,7.08-7.2,7.14,7.14,0,0,1,7.2,7.2v2.93c4-5.79,9.8-10.17,19.48-10.17,14,0,22.19,9.45,22.19,23.85v33.59a7,7,0,0,1-7.08,7.09,7.05,7.05,0,0,1-7.2-7.09V496.23c0-9.68-4.84-15.23-13.34-15.23-8.26,0-14.05,5.79-14.05,15.47v29a7.14,7.14,0,0,1-14.28,0v-50.2m93.7,44.9c-9.8,0-17.82-7.67-17.82-19.95V500c0-12,8.14-20,17.82-20s18.18,8,18.18,20v.23c0,11.92-8.5,19.95-18.18,19.95m25-52.29a7.16,7.16,0,0,0-7.19,7.2v4.25c-4.61-6.49-11.09-11.68-21.24-11.68-14.64,0-28.92,11.56-28.92,32.34v.23c0,20.66,14.16,32.34,28.92,32.34,10.33,0,16.8-5.14,21.17-10.88-.71,11.22-7.58,17.15-19.64,17.15a38.12,38.12,0,0,1-19.12-5,5.63,5.63,0,0,0-2.59-.58,6,6,0,0,0-6,5.89,5.84,5.84,0,0,0,4,5.67,53.69,53.69,0,0,0,24.06,5.55c11.22,0,20-2.71,25.63-8.38,5.18-5.2,8-13,8-23.49V475.06a7.07,7.07,0,0,0-7.09-7.2m-125.85-17a7.2,7.2,0,1,1-7.2-7.2,7.21,7.21,0,0,1,7.2,7.2M366.78,528.27c-15.84,21.1-49.66,14-71.34,15,0,0-3.84.21-7.71.85,0,0,1.46-.62,3.33-1.27,15.23-5.26,22.42-6.32,31.68-11.08,17.39-8.9,34.69-28.3,38.21-48.46-6.61,19.38-26.74,36.07-45.07,42.84-12.55,4.63-35.23,9.14-35.24,9.14s-.9-.48-.91-.49c-15.43-7.5-15.88-40.92,12.14-51.69,12.29-4.73,24-2.13,37.32-5.29,14.17-3.37,30.57-14,37.24-27.87,7.48,22.17,16.46,56.87.35,78.32Zm.27-85.19a58.94,58.94,0,0,1-6.83,12.12,64.2,64.2,0,1,0-89.66,91.85l1.41,1.24a5.49,5.49,0,1,1,7.72-.8,5.49,5.49,0,0,1-7.72.8l1,.85a64.18,64.18,0,0,0,105.36-44.52c1.76-16.28-3.05-37-11.24-61.55M743.3,472.36h-2.25v3h2.25a1.49,1.49,0,1,0,0-3Zm1.38,7.35-2.18-3.31h-1.45v3.31h-1.17v-8.39h3.42a2.62,2.62,0,0,1,2.73,2.56,2.47,2.47,0,0,1-2.14,2.49l2.24,3.34Zm-2-10.42a6.22,6.22,0,1,0,6.21,6.21A6.19,6.19,0,0,0,742.68,469.29Zm0,13.54A7.33,7.33,0,1,1,750,475.5a7.33,7.33,0,0,1-7.32,7.33" transform="translate(-250 -435.76)"/></svg>